<svg xmlns="http://www.w3.org/2000/svg" viewBox="0 0 64 64">
  <defs>
    <linearGradient id="g" x1="0" y1="0" x2="1" y2="1">
      <stop offset="0" stop-color="#7c3aed"/>
      <stop offset="1" stop-color="#06b6d4"/>
    </linearGradient>
  </defs>
  <rect x="8" y="8" width="48" height="48" rx="12" fill="url(#g)"/>
  <path d="M22 32a10 10 0 0 1 10-10h2v6h-2a4 4 0 0 0-4 4v0a4 4 0 0 0 4 4h2v6h-2a10 10 0 0 1-10-10zm20 0a10 10 0 0 1-10 10h-2v-6h2a4 4 0 0 0 4-4v0a4 4 0 0 0-4-4h-2v-6h2a10 10 0 0 1 10 10z" fill="#ffffff"/>
</svg>